<svg xmlns="http://www.w3.org/2000/svg" viewBox="0 0 392.7 392.7"><defs><style>.cls-1{fill:#fd973f;}.cls-2{fill:#333;}</style></defs><g id="Capa_2" data-name="Capa 2"><g id="Capa_2-2" data-name="Capa 2"><circle class="cls-1" cx="196.35" cy="196.35" r="196.35"/><path class="cls-2" d="M257.3,122.07a13.5,13.5,0,1,0,13.5,13.5A13.5,13.5,0,0,0,257.3,122.07Z"/><path class="cls-2" d="M197.3,139.38A56.7,56.7,0,1,0,254,196.08,56.76,56.76,0,0,0,197.3,139.38Zm0,93a36.32,36.32,0,1,1,36.31-36.31A36.36,36.36,0,0,1,197.3,232.39Z"/><path class="cls-2" d="M242.31,311.19H150.39A69.23,69.23,0,0,1,81.24,242V150.12A69.23,69.23,0,0,1,150.39,81h91.92a69.23,69.23,0,0,1,69.15,69.15V242A69.23,69.23,0,0,1,242.31,311.19ZM150.39,102.63a47.54,47.54,0,0,0-47.49,47.49V242a47.54,47.54,0,0,0,47.49,47.49h91.92A47.54,47.54,0,0,0,289.8,242V150.12a47.54,47.54,0,0,0-47.49-47.49Z"/></g></g></svg>