<svg xmlns="http://www.w3.org/2000/svg" xmlns:xlink="http://www.w3.org/1999/xlink" viewBox="0 0 933.57 1080"><defs><style>.cls-1{fill:none;}.cls-2{isolation:isolate;}.cls-3{opacity:0.3;}.cls-4{fill:#ffe0c7;}.cls-4,.cls-5,.cls-8{fill-rule:evenodd;}.cls-5{fill:#e0e0e0;}.cls-6{fill:#dadada;}.cls-7{opacity:0.8;}.cls-8{fill:#fff;}.cls-9{fill:#445862;}.cls-10{fill:#ededed;}.cls-10,.cls-11,.cls-15,.cls-20,.cls-22,.cls-37{mix-blend-mode:multiply;}.cls-11,.cls-13,.cls-15,.cls-16,.cls-19{fill:#fd9033;}.cls-11,.cls-19,.cls-22,.cls-23{opacity:0.31;}.cls-12{fill:#d96300;}.cls-14{opacity:0.4;}.cls-16,.cls-19,.cls-21,.cls-23{mix-blend-mode:screen;}.cls-16,.cls-21{opacity:0.46;}.cls-17{fill:#e8e9eb;}.cls-18{fill:#fd7400;}.cls-24{fill:#31454f;}.cls-25{fill:#b5b1ae;}.cls-26{fill:#49505b;}.cls-27{fill:#888583;}.cls-28{clip-path:url(#clip-path);}.cls-29{fill:#25282e;}.cls-30{fill:#db6500;}.cls-31{fill:#fec799;}.cls-32{fill:#e1e0df;}.cls-33{fill:#edecec;}.cls-34{fill:#fed3ad;}.cls-35{fill:#fda65c;}.cls-36,.cls-37{fill:#ffd042;}.cls-37{opacity:0.45;}.cls-38{fill:#ffdd75;}</style><clipPath id="clip-path"><path class="cls-1" d="M837,473.45q-43.58,85.47-111.63,161a75.37,75.37,0,0,1-89.14,17.22c-61.16-30-116.13-67.23-163.61-113.22A75.52,75.52,0,0,1,455.06,456c28.1-69.64,65.76-129,117.15-173.64A75.32,75.32,0,0,1,651.84,270q99,43.46,171.53,116.25A75.15,75.15,0,0,1,837,473.45Z"/></clipPath></defs><g class="cls-2"><g id="Capa_2" data-name="Capa 2"><g id="Capa_1-2" data-name="Capa 1"><g class="cls-3"><path class="cls-4" d="M191.59,336.28a82.75,82.75,0,0,1,12.54-18.08l-7-19.17,28.38-18.27,14.56,14.29a82.61,82.61,0,0,1,21.65-3.93l8.62-18.48,33,7.15.19,20.39a82.41,82.41,0,0,1,18.08,12.54l19.17-7,18.27,28.38-14.29,14.56a82.61,82.61,0,0,1,3.93,21.65l18.49,8.61-7.15,33-20.39.19A82.75,82.75,0,0,1,327.1,430.2l7,19.17L305.7,467.64l-14.56-14.29a83,83,0,0,1-21.65,3.93l-8.62,18.48-33-7.15-.19-20.39a82.47,82.47,0,0,1-18.09-12.54l-19.16,7-18.27-28.38,14.29-14.56a82.2,82.2,0,0,1-3.93-21.65l-18.49-8.61,7.15-33,20.39-.19Zm39,28.75a36.21,36.21,0,1,0,43.06-27.72A36.22,36.22,0,0,0,230.55,365Z"/><path class="cls-5" d="M138.18,186a40.28,40.28,0,0,1,6.09-8.77l-3.39-9.31,13.78-8.86,7.06,6.93a40.3,40.3,0,0,1,10.51-1.91l4.18-9,16,3.47.09,9.9a39.94,39.94,0,0,1,8.77,6.09l9.31-3.39L219.47,185,212.53,192a40.14,40.14,0,0,1,1.91,10.51l9,4.18-3.47,16-9.9.09a39.73,39.73,0,0,1-6.08,8.78l3.38,9.3-13.77,8.87-7.07-6.93a40.13,40.13,0,0,1-10.51,1.9l-4.18,9-16-3.46-.09-9.9a40.34,40.34,0,0,1-8.78-6.09l-9.3,3.39-8.87-13.78,6.94-7.06a39.89,39.89,0,0,1-1.91-10.51l-9-4.18,3.47-16,9.89-.1Zm18.92,14A17.57,17.57,0,1,0,178,186.52,17.57,17.57,0,0,0,157.1,200Z"/><path class="cls-6" d="M17.82,293.9a51.22,51.22,0,0,1,7.79-11.24l-4.34-11.92,17.65-11.36,9,8.89a51.44,51.44,0,0,1,13.46-2.45l5.35-11.49,20.51,4.45.12,12.67a51.26,51.26,0,0,1,11.24,7.8l11.92-4.34,11.36,17.64L113,301.61a50.88,50.88,0,0,1,2.44,13.45l11.5,5.36-4.45,20.51-12.67.12a51.74,51.74,0,0,1-7.8,11.24l4.34,11.91L88.76,375.56l-9.06-8.88a51.43,51.43,0,0,1-13.46,2.44l-5.35,11.49-20.51-4.44-.12-12.68A51.46,51.46,0,0,1,29,355.7L17.1,360,5.75,342.39l8.88-9.05a51.43,51.43,0,0,1-2.44-13.46L.7,314.52,5.14,294l12.68-.12ZM42,311.77a22.51,22.51,0,1,0,26.77-17.23A22.51,22.51,0,0,0,42,311.77Z"/><path class="cls-6" d="M42,311.77c-.08,0,0-.51.14-1.45a16.93,16.93,0,0,1,1.3-4,22.38,22.38,0,0,1,10.68-10.94,23.27,23.27,0,0,1,22.43,1.17,23.52,23.52,0,0,1-9.39,43.33,23.28,23.28,0,0,1-20.9-8.22,22.37,22.37,0,0,1-5.2-14.38,16.86,16.86,0,0,1,.47-4.16c.23-.92.39-1.39.47-1.38.23,0-.23,2,0,5.51a22.45,22.45,0,0,0,5.55,13.32,21.49,21.49,0,1,0,7.29-33.67,22.44,22.44,0,0,0-10.56,9.83C42.66,309.86,42.27,311.83,42,311.77Z"/><path class="cls-6" d="M17.82,293.9a21.84,21.84,0,0,1-3.16.21l-9.52.29.37-.3c-1.1,5.33-2.51,12.23-4.22,20.55L1,314l11.53,5.27.38.17,0,.43a51.4,51.4,0,0,0,2.49,13.25l.15.44-.33.35c-2.76,2.83-5.74,5.9-8.84,9.1l.11-1.06,11.43,17.6-1.11-.38,11.91-4.38.55-.2.44.4a50.51,50.51,0,0,0,11,7.61l.55.28v.62c.05,3.93.1,8.27.15,12.68l-.83-1,20.51,4.4-1.24.61c1.67-3.58,3.49-7.51,5.34-11.49l.29-.62.68,0a50.33,50.33,0,0,0,13.16-2.41l.66-.21.5.49,9.06,8.87-1.44-.15,17.63-11.37-.47,1.4-4.35-11.92-.24-.67.48-.53a50.35,50.35,0,0,0,7.61-11h0l1-.65H113l3.18,0,6.32-.06-1.15.94q2.26-10.4,4.46-20.51l.65,1.32L115,316.12l-.64-.3,0-.7A50.37,50.37,0,0,0,112,302l-.22-.66.49-.5,8.9-9-.15,1.41L109.65,275.5l1.29.44L99,280.25l-.6.22-.48-.43a50.23,50.23,0,0,0-11-7.67l-.56-.29v-.62q0-6.51-.08-12.67l.78.95-20.49-4.52,1-.5L62.2,266.18l-.22.47-.51,0A50.72,50.72,0,0,0,48.21,269l-.46.14-.33-.33-9-8.93.87.09L21.56,271.19l.21-.63,4.2,12,.08.22-.15.17c-6.19,6.81-7.86,11.14-8.08,11a3.62,3.62,0,0,1,.3-.8c.24-.5.61-1.27,1.17-2.27a48.34,48.34,0,0,1,6-8.43l-.08.39c-1.23-3.27-2.7-7.16-4.48-11.87l-.15-.39.37-.24,17.55-11.5.46-.3.41.39,9.11,8.83-.79-.19A52.51,52.51,0,0,1,61.39,265l-.74.49L66,254l.3-.66.72.15,20.52,4.37.77.16v.8q.07,6.17.16,12.67l-.56-.9a52.36,52.36,0,0,1,11.49,7.92l-1.08-.21,11.9-4.37.82-.3.48.74,11.39,17.62.49.76-.64.65-8.87,9.06.28-1.16A52.76,52.76,0,0,1,116.65,315l-.67-1,11.49,5.34.86.4-.2.92-4.44,20.51-.2.93h-.95l-6.32.07-3.18,0h-3.17c.47-.29-1.05.64,1-.65h0a53,53,0,0,1-8,11.49l.23-1.21,4.34,11.92.32.89-.79.51L89.39,376.54l-.79.51-.66-.66-9-8.89,1.16.27a52.54,52.54,0,0,1-13.76,2.48l1-.65c-1.86,4-3.7,7.9-5.38,11.48l-.37.8-.87-.19L40.16,377.2l-.83-.18v-.84c0-4.41-.06-8.75-.08-12.68l.56.91a52.61,52.61,0,0,1-11.44-8l1,.2-11.93,4.29-.71.26-.4-.63L5,342.85l-.36-.57.47-.48,8.93-9-.18.79a51.84,51.84,0,0,1-2.4-13.67l.4.6L.44,315.07,0,314.86l.11-.46c1.88-8.28,3.45-15.15,4.66-20.46l.07-.3h.3l9.37.11,2.44.07A4.06,4.06,0,0,1,17.82,293.9Z"/><g class="cls-7"><path class="cls-8" d="M191.59,336.28a82.75,82.75,0,0,1,12.54-18.08l-7-19.17,28.38-18.27,14.56,14.29a82.61,82.61,0,0,1,21.65-3.93l8.62-18.48,33,7.15.19,20.39a82.41,82.41,0,0,1,18.08,12.54l19.17-7,18.27,28.38-14.29,14.56a82.61,82.61,0,0,1,3.93,21.65l18.49,8.61-7.15,33-20.39.19A82.75,82.75,0,0,1,327.1,430.2l7,19.17L305.7,467.64l-14.56-14.29a83,83,0,0,1-21.65,3.93l-8.62,18.48-33-7.15-.19-20.39a82.47,82.47,0,0,1-18.09-12.54l-19.16,7-18.27-28.38,14.29-14.56a82.2,82.2,0,0,1-3.93-21.65l-18.49-8.61,7.15-33,20.39-.19Zm39,28.75a36.21,36.21,0,1,0,43.06-27.72A36.22,36.22,0,0,0,230.55,365Z"/></g></g><path class="cls-9" d="M933.57,0V1080c-136.29-83.87-506-350.75-617.4-465.64-28-28.88-55.94-60.08-67.29-98.67-18.94-64.41,12.3-131.93,44.47-190.86A3312.13,3312.13,0,0,1,495.88,0Z"/><path class="cls-10" d="M505.32,797.31c-1.1-6.65-16.58-10.23-40.18-10.52l-13.36-25.28L439.37,738l-26.88-50.85-12.28-23.25-19.83-37.51a15.46,15.46,0,0,0-1.34-2.11c-.18-.23-.39-.42-.59-.64-.33-.38-.65-.78-1-1.11s-.6-.47-.89-.71-.59-.5-.91-.71a11.43,11.43,0,0,0-1.14-.63c-.27-.15-.53-.32-.82-.45s-.89-.34-1.34-.5c-.25-.08-.48-.19-.73-.26-.49-.14-1-.22-1.48-.31-.23,0-.45-.1-.68-.13-.52-.07-1-.08-1.56-.1l-.64,0c-.52,0-1,.06-1.55.12-.2,0-.4,0-.6,0h0l-.46.08h0l-.36.09a14.48,14.48,0,0,0-11.78,11.77l-7.46,42.65-4.56,26-9.94,56.8L326,782.51l-4.88,27.91c-22.5,7.88-36.19,16.29-35.09,23a5.34,5.34,0,0,0,.84,2l0,0c.1.15.19.3.31.45h0a20.33,20.33,0,0,0,.47,7.25c2.82,12.09,53.64,19.54,114.2,9.58S508.2,819.35,506.91,807a22.38,22.38,0,0,0-1.85-7.09A5.63,5.63,0,0,0,505.32,797.31Z"/><path class="cls-11" d="M404.88,701.76l34.63,107.42,3,21.41s-102.63,19.9-139.26-3.34C303.24,827.25,394.69,799.94,404.88,701.76Z"/><path class="cls-12" d="M476.88,835.17c-.74,12.86-49.76,29.07-111.13,29.07S255.44,848,254.62,835.17c-2-31.75,49.75-23.34,111.13-23.34S478.79,801.63,476.88,835.17Z"/><path class="cls-13" d="M476.88,825c0,12.89-49.76,29.08-111.13,29.08S254.62,837.85,254.62,825s49.75-23.33,111.13-23.33S476.88,812.07,476.88,825Z"/><g class="cls-14"><path class="cls-15" d="M430.78,811.06l-14.13,21.18,29.29,11.62c14-4.07,24-8.92,28.39-13.67Z"/><path class="cls-16" d="M314.19,810.87l-4.51-3.54-15.3,6.09L255.1,827.14c.08.18.15.35.23.52,3.38,6.72,18.87,13.93,41.51,19.12l21.07-14.54,12.81-8.39Z"/></g><path class="cls-17" d="M432.72,826.64c-21.66,12.37-74.84,34.72-133.76,0a14.87,14.87,0,0,1-6.56-17.57L301.84,781l8.73-25.91,19.15-56.88L338.53,672l14.62-43.42c4.57-13.58,23.8-13.46,28.21.17l13.78,42.78,8.44,26.16h0l18.37,57,8.37,26,9.19,28.49A14.85,14.85,0,0,1,432.72,826.64Z"/><path class="cls-18" d="M395.14,671.56a160.47,160.47,0,0,1-56.61.47l14.62-43.42c4.57-13.58,23.8-13.46,28.21.17Z"/><path class="cls-18" d="M422,754.71a229.52,229.52,0,0,1-111.38.37l19.15-56.88a182.48,182.48,0,0,0,73.86-.47Z"/><path class="cls-18" d="M432.72,826.64c-21.66,12.37-74.84,34.72-133.76,0a14.87,14.87,0,0,1-6.56-17.57L301.84,781a250.6,250.6,0,0,0,128.48-.31l9.19,28.49A14.85,14.85,0,0,1,432.72,826.64Z"/><path class="cls-1" d="M381.35,628.79l58.16,180.39a15,15,0,0,1-8.19,18.07c-26.54,11.21-75.94,17.56-129.37.36a14.76,14.76,0,0,1-9.5-18.73l60.7-180.28C357.72,615,377,615.15,381.35,628.79Z"/><path class="cls-11" d="M439.51,809.18,381.35,628.79a14.55,14.55,0,0,0-13.84-10.29l48.57,208.55a22.14,22.14,0,0,1,.57,5.19,116.59,116.59,0,0,0,14.67-5A15,15,0,0,0,439.51,809.18Z"/><path class="cls-19" d="M295.05,809.18l58.16-180.39a14.56,14.56,0,0,1,13.84-10.29L318.48,827.05a22.14,22.14,0,0,0-.57,5.19,116.59,116.59,0,0,1-14.67-5A15,15,0,0,1,295.05,809.18Z"/><path class="cls-10" d="M663.66,859.24c-21.54-31.13-150.46-18.31-150.46-18.31a113.7,113.7,0,0,0,3,12.47l-147,56.33,197.64-.36c.74.11,1.47.24,2.24.31a74.38,74.38,0,0,0,16.9-.34h1.42l-.09-.21C624.63,903.51,680.1,883,663.66,859.24Z"/><path class="cls-12" d="M596.54,904.85c3.44-1.93,5.17-8.05,5.15-17.2-.05-20.76-9.14-57.12-27.86-95.4-27-55.13-63-92-74.94-87-29.42,12.13.89,54.95,27.86,110.08S567.25,921.31,596.54,904.85Z"/><path class="cls-13" d="M587.38,909.34c11.57-5.67,4.25-57.47-22.72-112.6s-63.36-92.72-74.94-87,.9,54.94,27.86,110.08S575.8,915,587.38,909.34Z"/><g class="cls-14"><g class="cls-20"><path class="cls-13" d="M556.39,882.71l6.75-47.17L586.47,854c7.79,21,10.07,50.81.91,55.3Z"/></g><g class="cls-21"><path class="cls-13" d="M503.24,769.39l-5.17-2.5-1.25-16.41-4.93-41.32h0c7.41-.48,21,10.35,36,28.87l-3.8,25.31-1.91,15.19Z"/></g></g><path class="cls-17" d="M569.48,868.93a14.83,14.83,0,0,1-10.7,13.34l-.7.19h0c-.41.09-.84.18-1.28.24L526.92,887l-27,3.89-59.29,8.54-27.06,3.88-44.42,6.41c-14.18,2-22.75-15.19-12.56-25.26l32.55-32.18L408.69,833l42.7-42.21,19.41-19.2,21.09-20.84c.18-.18.36-.36.55-.52a14.85,14.85,0,0,1,18.25-1.44C567.79,786.45,571.08,844.05,569.48,868.93Z"/><path class="cls-18" d="M413.6,903.32l-44.42,6.41c-14.18,2-22.75-15.19-12.56-25.26l32.55-32.18A158.54,158.54,0,0,1,413.6,903.32Z"/><path class="cls-18" d="M500,890.9l-59.29,8.54a181.57,181.57,0,0,0-32-66.44l42.7-42.21A228.11,228.11,0,0,1,500,890.9Z"/><path class="cls-18" d="M569.48,868.93a14.83,14.83,0,0,1-10.7,13.34l-.7.19h0c-.41.09-.84.18-1.28.24L526.92,887A249.33,249.33,0,0,0,470.8,771.59l21.09-20.84c.18-.18.36-.36.55-.52a14.85,14.85,0,0,1,18.25-1.44C567.79,786.45,571.08,844.05,569.48,868.93Z"/><path class="cls-1" d="M558.78,882.27l-.7.19h0c-.41.09-.84.18-1.28.24L526.92,887l-27,3.89-59.29,8.54-27.06,3.88-44.42,6.41c-14.18,2-22.75-15.19-12.56-25.26l32.55-32.18L408.69,833l42.7-42.21,19.41-19.2,21.09-20.84c.18-.18.36-.36.55-.52a14.71,14.71,0,0,1,20.36.7c39,40.46,55,87.69,56.61,116.48A15.08,15.08,0,0,1,558.78,882.27Z"/><g class="cls-22"><path class="cls-13" d="M556.78,882.71l-187.6,27a14.56,14.56,0,0,1-15.32-7.92L558.23,837.3a22.47,22.47,0,0,0,4.91-1.76c1.05,5.47,6.29,22.48,6.26,31.72C569.39,874.71,564.15,881.65,556.78,882.71Z"/></g><g class="cls-23"><path class="cls-13" d="M493.3,752.94,356.81,884.44a14.57,14.57,0,0,0-3.15,17l166-135.27a22.86,22.86,0,0,1,4.42-2.79,117.16,117.16,0,0,0-10.82-10.88A15.07,15.07,0,0,0,493.3,752.94Z"/></g><path class="cls-11" d="M529.3,770.14S468.66,884.3,369.18,909.73L485.4,893l71.38-10.28s12.91-1.69,12.62-15.45S555.68,795.65,529.3,770.14Z"/><path class="cls-24" d="M837,473.45q-43.58,85.47-111.63,161a75.37,75.37,0,0,1-89.14,17.22c-61.16-30-116.13-67.23-163.61-113.22A75.52,75.52,0,0,1,455.06,456c28.1-69.64,65.76-129,117.15-173.64A75.32,75.32,0,0,1,651.84,270q99,43.46,171.53,116.25A75.15,75.15,0,0,1,837,473.45Z"/><path class="cls-25" d="M494.83,598.61l-11.33-5c2.87-6.57,5.85-13.36,10.11-19.59,5.08-7.44,11.31-12.79,18-15.48,9.21-3.7,18.87-2.3,26.25-.66,14.84,3.29,32.88,11.23,47.09,20.71l-6.86,10.29c-12.83-8.56-29.68-16-42.91-18.92-6-1.33-12.93-2.36-19,.06-5.57,2.24-9.81,7.21-12.39,11C500.21,586.32,497.47,592.57,494.83,598.61Z"/><path class="cls-26" d="M561.84,580.66l-1.64-.78a22.11,22.11,0,0,1,7.73-12l1.79.88A20,20,0,0,0,561.84,580.66Z"/><path class="cls-26" d="M543.3,573.14c-.57-.19-1.14-.37-1.71-.52a21.94,21.94,0,0,1,7.21-12.54c.31.08.61.18.93.29l1.07.36A20,20,0,0,0,543.3,573.14Z"/><path class="cls-26" d="M526,569.52c-.59,0-1.18,0-1.76,0a21.78,21.78,0,0,1,4.67-13.92c.71.06,1.41.14,2.11.23A19.9,19.9,0,0,0,526,569.52Z"/><path class="cls-26" d="M512.66,573a14.46,14.46,0,0,0-1.43,1.08,21.69,21.69,0,0,1-1.08-15.85c.36-.17.75-.32,1.12-.48l1.08-.4A19.88,19.88,0,0,0,512.66,573Z"/><path class="cls-26" d="M502.51,584.8c-.3.49-.6,1-.87,1.53A21.7,21.7,0,0,1,493.27,573c.48-.69,1-1.36,1.49-2A19.83,19.83,0,0,0,502.51,584.8Z"/><path class="cls-27" d="M499.77,587.94c-1.79,3.46-3.38,7.1-4.94,10.67l-11.34-5c1.28-2.91,2.57-5.87,4-8.8a21.59,21.59,0,0,1,7.86,1A17.78,17.78,0,0,1,499.77,587.94Z"/><path class="cls-25" d="M495,587a21.56,21.56,0,0,0-7.56-1,23.92,23.92,0,0,0-7.5,1.6,27.58,27.58,0,0,0-6.41,3.57,31,31,0,0,0-6.36,6.33,34.65,34.65,0,0,0-5.31,10.3,35.69,35.69,0,0,0-1.44,6.55s12.77-1.37,13.21-2.78c.11-.3.21-.59.31-.88a21.33,21.33,0,0,1,5.38-8.27,15.16,15.16,0,0,1,6.32-3.7,9.84,9.84,0,0,1,5.59.07,9.56,9.56,0,0,1,4.21,2.77,14.41,14.41,0,0,1,3.23,6.27h0a20.65,20.65,0,0,1,.24,8.4l5.18,2.13,6.86,2.82C513.39,606.81,506.77,590.78,495,587Z"/><path class="cls-25" d="M804.27,559.9l11.35,4.93c-2.86,6.58-5.82,13.37-10.07,19.61-5.07,7.46-11.28,12.83-18,15.53-9.21,3.72-18.87,2.34-26.25.72-14.85-3.26-32.91-11.15-47.14-20.6l6.84-10.3c12.85,8.52,29.71,15.92,43,18.82,6,1.31,12.93,2.33,19-.11,5.56-2.25,9.79-7.23,12.36-11C798.92,572.2,801.64,566,804.27,559.9Z"/><path class="cls-26" d="M737.31,578l1.64.77a22.16,22.16,0,0,1-7.7,12l-1.79-.88A20,20,0,0,0,737.31,578Z"/><path class="cls-26" d="M755.86,585.48c.57.2,1.14.37,1.71.52a22,22,0,0,1-7.18,12.56c-.31-.08-.61-.19-.93-.29l-1.07-.36A20,20,0,0,0,755.86,585.48Z"/><path class="cls-26" d="M773.17,589.06c.59,0,1.18,0,1.76,0A21.75,21.75,0,0,1,770.29,603c-.71-.06-1.41-.14-2.11-.23A19.91,19.91,0,0,0,773.17,589.06Z"/><path class="cls-26" d="M786.51,585.54a15.58,15.58,0,0,0,1.42-1.08A21.61,21.61,0,0,1,789,600.3c-.35.18-.74.33-1.11.48l-1.08.4A19.86,19.86,0,0,0,786.51,585.54Z"/><path class="cls-26" d="M796.62,573.73c.3-.5.6-1,.87-1.54a21.69,21.69,0,0,1,8.4,13.3c-.48.7-1,1.37-1.48,2A19.8,19.8,0,0,0,796.62,573.73Z"/><path class="cls-27" d="M799.36,570.58c1.78-3.46,3.36-7.11,4.91-10.69l11.35,5c-1.27,2.91-2.55,5.87-4,8.8a21.37,21.37,0,0,1-7.86-1A18.11,18.11,0,0,1,799.36,570.58Z"/><path class="cls-25" d="M799.89,569.49h0a17.63,17.63,0,0,0,4.25,2,21.53,21.53,0,0,0,8.05,1,26,26,0,0,0,14.64-6.12,32.1,32.1,0,0,0,6-6.65,35.09,35.09,0,0,0,4.39-9.06,36.48,36.48,0,0,0,1.42-6.55l-1.38.16A78.92,78.92,0,0,0,827.09,546c-.92.27-1.53.56-1.62.85a21.52,21.52,0,0,1-6.3,9.77,13.38,13.38,0,0,1-8.26,3.5,9.52,9.52,0,0,1-3-.44c-3.95-1.25-6.75-5.14-7.69-10.07a39.22,39.22,0,0,1-4.77-9.29l-7.32-3C786,549.9,790.8,563.69,799.89,569.49Z"/><g class="cls-28"><ellipse class="cls-10" cx="649.41" cy="716.22" rx="107.83" ry="12.26"/><path class="cls-18" d="M751.27,384.25q-104.44-13.75-201.93,0A15.77,15.77,0,0,0,537,393.76c-12.25,29.35-16.72,58.94-13.2,88.79,0,.05,0,.11,0,.16l.21,1.66a180.74,180.74,0,0,0,5,24.55c.3,1.07.6,2.15.92,3.23.17.62.37,1.25.56,1.89q2.82,9.26,6.66,18.55a15.91,15.91,0,0,0,12.1,9.53q15.24,2.57,30.41,4.44c47.76,5.92,94.89,6.53,141.26.7q15.46-1.95,30.84-4.87a15.9,15.9,0,0,0,12.06-10.18,216.23,216.23,0,0,0,6.92-23.29,199.27,199.27,0,0,0,4.43-26.21q4.5-44.07-11.13-88.14A15.76,15.76,0,0,0,751.27,384.25Z"/><path class="cls-25" d="M661.77,693.51c1.25,0,2.49-.09,3.74-.16C664.26,693.42,663,693.47,661.77,693.51Z"/><path class="cls-25" d="M657.13,693.65c1.55,0,3.1-.08,4.64-.14l-.84,0Z"/><path class="cls-25" d="M670.88,693c-1.79.13-3.58.23-5.37.32C667.3,693.26,669.09,693.17,670.88,693Z"/><path class="cls-26" d="M720.38,699.44a9,9,0,0,1-6.91,8.7c-42.13,9.69-84.49,9-127-.08a8.88,8.88,0,0,1-7-8.66v-.29C627.21,707,673.74,708.14,720.38,699.44Z"/><path class="cls-29" d="M592.74,700.23,591,700a23.74,23.74,0,0,0,.62,10l1.95.4A22,22,0,0,1,592.74,700.23Z"/><path class="cls-29" d="M631.47,704.05,629.7,704a23.66,23.66,0,0,0,.34,11.25l1.85.13A22,22,0,0,1,631.47,704.05Z"/><path class="cls-29" d="M669.86,704.36l-1.81.06a23.7,23.7,0,0,0,.51,11.07l1.78-.13A21.83,21.83,0,0,1,669.86,704.36Z"/><path class="cls-29" d="M708,700.73l-1.79.27a24,24,0,0,0,.86,9.42c.58-.11,1.15-.25,1.73-.37A21.93,21.93,0,0,1,708,700.73Z"/><path class="cls-25" d="M606.35,689.68q-1.9-.31-3.81-.66C603.81,689.26,605.08,689.47,606.35,689.68Z"/><path class="cls-25" d="M612.74,690.7c-2.13-.31-4.26-.66-6.39-1C608.48,690,610.61,690.39,612.74,690.7Z"/><path class="cls-25" d="M602.33,689l-.67-.13.88.16Z"/><path class="cls-25" d="M579.85,684.15a225.12,225.12,0,0,1-10.25-46.34.75.75,0,0,1,.21,0A225.14,225.14,0,0,0,580,684.15q10.88,2.75,21.65,4.71Q590.79,686.88,579.85,684.15Z"/><path class="cls-25" d="M720.61,684.15A237.29,237.29,0,0,1,670.88,693a236.5,236.5,0,0,0,29.65-4c6.59-1.31,13.15-2.94,19.69-4.84a254.47,254.47,0,0,0,8.81-46.3v-.06a3,3,0,0,1,.43,0v0A253.74,253.74,0,0,1,720.61,684.15Z"/><path class="cls-25" d="M758.2,667.39c0,1.26-.21,2.49-.21,3.7,0,21.94-33.12,27.49-38.32,28.48-46.45,8.7-92.8,7.44-140.34-.46C574.1,698.25,541,693,541,671.18c0-15.7,8.27-32.5,28.5-33.37a1.72,1.72,0,0,1,.32,0,221.77,221.77,0,0,0,7.87,38.88,13.44,13.44,0,0,0,9.91,9.3q7.39,1.69,14.75,3a286.55,286.55,0,0,0,41.4,4.54c5.73.19,11.47.21,17.19,0A238,238,0,0,0,700.52,689c1.16-.23,2.32-.47,3.47-.72A26.51,26.51,0,0,0,724.31,668,247.67,247.67,0,0,0,729,637.85v-.06A29.54,29.54,0,0,1,758.2,667.39Z"/><path class="cls-27" d="M731.84,638c0,.62-.1,1.24-.15,1.86v.05A255.47,255.47,0,0,1,725.61,676a19.61,19.61,0,0,1-14.5,14.51c-39.88,9.54-80.66,8.57-122.11-.45a19.52,19.52,0,0,1-14.54-13.91,227.25,227.25,0,0,1-7.08-36.33c-.07-.6-.13-1.22-.2-1.82.76-.09,1.52-.14,2.32-.18,0,0,.07,0,.1,0a222.3,222.3,0,0,0,7.67,38.06,14.82,14.82,0,0,0,11,10.28q12.28,2.76,24.51,4.55c1.57.23,3.14.46,4.72.64s3,.39,4.45.55c1.11.14,2.21.24,3.3.35l.73.09,4.28.39c1.37.12,2.75.23,4.13.31q11.43.81,22.78.62,6.89-.1,13.75-.62a236,236,0,0,0,40.35-6.36,16.28,16.28,0,0,0,11.88-11.85,249.51,249.51,0,0,0,6.35-37v0C730.27,637.83,731.07,637.88,731.84,638Z"/><path class="cls-26" d="M757.22,656.88q-5.6.52-11.19.53a124.25,124.25,0,0,1-20.25-1.68c.11-.58.22-1.17.3-1.77a122.55,122.55,0,0,0,30.43,1.2C756.76,655.73,757,656.3,757.22,656.88Z"/><path class="cls-26" d="M758.81,671.58c-.09.6-.18,1.2-.3,1.8a120.76,120.76,0,0,1-12.46.64,122.61,122.61,0,0,1-23.52-2.28c.14-.56.28-1.13.39-1.71A124.81,124.81,0,0,0,758.81,671.58Z"/><path class="cls-26" d="M573.68,656.93q-5.29.48-10.6.48a122.36,122.36,0,0,1-20.89-1.8c.23-.57.48-1.13.73-1.68a122.53,122.53,0,0,0,30.43,1.25C573.45,655.77,573.56,656.35,573.68,656.93Z"/><path class="cls-26" d="M577.59,673.15a119.46,119.46,0,0,1-14.51.87,121.74,121.74,0,0,1-22.9-2.17c0-.18,0-.37-.07-.57-.05-.42-.09-.83-.11-1.25a123.84,123.84,0,0,0,37.11,1.41C577.27,672,577.41,672.57,577.59,673.15Z"/><path class="cls-30" d="M722.27,552.12l-1.33.18c-46.37,5.83-93.5,5.21-141.26-.71l-1.56-.19c.49-1.61,1-3.24,1.56-4.84,47.76,5.92,94.89,6.53,141.26.7C721.4,548.87,721.84,550.5,722.27,552.12Z"/><path class="cls-13" d="M536.68,509.36a3.45,3.45,0,0,1-3.32-2.59,219.61,219.61,0,0,1-3.42-34,211.54,211.54,0,0,1,6.81-57.89c.67-2.59,1.41-5.25,2.28-8.14a3.57,3.57,0,0,1,4.29-2.08c1.89.43,3,2.07,2.56,3.65-.84,2.82-1.58,5.43-2.23,8A206.58,206.58,0,0,0,537,472.78,216.94,216.94,0,0,0,540.34,506c.3,1.63-1,3.13-3,3.34A5.51,5.51,0,0,1,536.68,509.36Z"/><path class="cls-12" d="M534.4,512.82c4.76,1,9.54,1.95,14.25,2.82a1.76,1.76,0,0,0,2.06-1.43c1-5.47,2.3-13.16,3.07-17.55a1.74,1.74,0,0,0-1.41-2c-7.21-1.34-14.33-2.81-21.24-4.38a1.77,1.77,0,0,0-2.14,2,186.32,186.32,0,0,0,4,19.29A1.8,1.8,0,0,0,534.4,512.82Z"/><path class="cls-12" d="M556.92,517.12c10.27,1.73,20.58,3.19,30.73,4.33a1.78,1.78,0,0,0,2-1.58q.92-8.86,1.85-17.73a1.76,1.76,0,0,0-1.55-1.93c-9.71-1.1-19.56-2.49-29.34-4.15a1.77,1.77,0,0,0-2,1.44q-1.53,8.81-3.07,17.56A1.78,1.78,0,0,0,556.92,517.12Z"/><path class="cls-12" d="M596,522.33c10.33,1,20.69,1.74,30.87,2.18a1.78,1.78,0,0,0,1.85-1.71l.62-17.82a1.75,1.75,0,0,0-1.68-1.82c-9.82-.42-19.71-1.12-29.47-2.08a1.77,1.77,0,0,0-1.93,1.57q-.93,8.87-1.85,17.73A1.77,1.77,0,0,0,596,522.33Z"/><path class="cls-12" d="M634.19,505.15,633.56,523a1.77,1.77,0,0,0,1.72,1.83c10.27.28,20.66.28,30.94,0a1.76,1.76,0,0,0,1.71-1.83q-.3-8.91-.61-17.82a1.75,1.75,0,0,0-1.8-1.7c-9.8.27-19.71.27-29.53,0A1.76,1.76,0,0,0,634.19,505.15Z"/><path class="cls-12" d="M672.16,505q.3,8.91.61,17.82a1.79,1.79,0,0,0,1.85,1.71c10.28-.44,20.64-1.16,30.87-2.16a1.78,1.78,0,0,0,1.59-2l-1.84-17.73a1.75,1.75,0,0,0-1.92-1.57c-9.67.94-19.56,1.64-29.47,2.06A1.76,1.76,0,0,0,672.16,505Z"/><path class="cls-12" d="M742.65,495.8c-10.38,1.79-20.81,3.27-31,4.43a1.75,1.75,0,0,0-1.55,1.93l1.84,17.73a1.78,1.78,0,0,0,2,1.58c10.15-1.15,20.46-2.6,30.73-4.34a1.76,1.76,0,0,0,1.45-2c-1.06-6.06-2.6-14.85-3.31-18.87Z"/><path class="cls-12" d="M770.05,511.1c.82-4.21,2.63-13.56,3.53-19.27a1.76,1.76,0,0,0-2.15-2c-6.59,1.54-14.45,3.3-22.3,4.79a1.75,1.75,0,0,0-1.41,2l3.08,17.56a1.76,1.76,0,0,0,2.06,1.43c5.37-1,10.67-2.06,15.83-3.17A1.77,1.77,0,0,0,770.05,511.1Z"/><path class="cls-18" d="M729.84,637.79v.06A249.68,249.68,0,0,1,723,676.68a13.19,13.19,0,0,1-9.5,9.51c-41,10.53-83.89,9.49-126.65-.27a13.31,13.31,0,0,1-9.79-9.15,221.26,221.26,0,0,1-7.48-39c-3-26.86-.34-53.51,7-79.91,1-3.78,2.21-7.56,3.46-11.34,47.77,5.92,94.9,6.53,141.27.7,1.07,3.78,2,7.58,2.95,11.37A241.84,241.84,0,0,1,729.84,637.79Z"/><path class="cls-12" d="M722.17,550.32l-1.62.21c-46.37,5.83-93.5,5.22-141.27-.71l-.26,0c.33-1.08.69-2.16,1-3.23,47.77,5.92,94.9,6.53,141.27.7Q721.75,548.78,722.17,550.32Z"/><path class="cls-13" d="M584.27,672a3.47,3.47,0,0,1-3.46-2.58A257.18,257.18,0,0,1,575.44,633,246.94,246.94,0,0,1,578.91,570c.52-2.84,1.11-5.76,1.81-8.93a3.52,3.52,0,0,1,4.16-2.52,3.23,3.23,0,0,1,2.77,3.78c-.68,3.1-1.26,6-1.77,8.73a240.76,240.76,0,0,0-3.38,61.43,251.09,251.09,0,0,0,5.24,35.65A3.24,3.24,0,0,1,585,672,4.14,4.14,0,0,1,584.27,672Z"/><path class="cls-31" d="M686.56,623.29l0-.25a15.7,15.7,0,0,0-14.06-12,22.09,22.09,0,0,0-22.09-21.65h-.64l-.3,0a22.09,22.09,0,0,0-19.33,13.3,21.47,21.47,0,0,0-1.44,4.7,17.49,17.49,0,0,0-7,2.12,17.17,17.17,0,0,0-1.58,29.14,17.31,17.31,0,0,0,10,3.18,16.72,16.72,0,0,0,5.79-1q.55-.21,1.11-.45a13.26,13.26,0,0,0,5.67,1.27h0a13.06,13.06,0,0,0,8.5-3.08,3.66,3.66,0,0,0,.44.13,8.4,8.4,0,0,0,2.06.23l.2,0h.32a4.1,4.1,0,0,1,3.88,5.5,3.91,3.91,0,0,1-2.4,2.38,2.06,2.06,0,0,0,.7,4,2.15,2.15,0,0,0,.7-.12,8.19,8.19,0,0,0-3-15.87h0l-.53,0a3.3,3.3,0,0,1-1-.11,4,4,0,0,1-.92-.34,3.9,3.9,0,0,1-2.13-2.9,4,4,0,0,1,1-3.49,2.06,2.06,0,0,0-3-2.85,8.13,8.13,0,0,0-2.07,7.07,8.34,8.34,0,0,0,2,4,9.18,9.18,0,0,1-4.75,1.31h0a8.76,8.76,0,0,1-6.47-2.72l-.06-.06L635,633.4a9.11,9.11,0,0,1-1.38-4.35c0-.2,0-.42,0-.72a9,9,0,0,1,7.81-8.7,2.13,2.13,0,0,0,.74-.23,2.06,2.06,0,0,0-1.33-3.84,13.1,13.1,0,0,0-11.33,12.62,10.59,10.59,0,0,0,0,1.12,13.13,13.13,0,0,0,2.09,6.4l.1.15,1.17,1.5.06.07a13.13,13.13,0,0,1-2.94.34l-.22,0a13.35,13.35,0,0,1-7.32-2.43,13.13,13.13,0,0,1,7.77-23.83h.25a12.85,12.85,0,0,1,6.51,2,2.06,2.06,0,1,0,2.2-3.48,17.37,17.37,0,0,0-6.36-2.45,18.32,18.32,0,0,1,1-3.22,18,18,0,0,1,15.92-10.83h.58A18,18,0,0,1,668.28,613a2,2,0,0,0,2.05,2.23h.37a11.4,11.4,0,0,1,11.79,8.72l0,.23a11.12,11.12,0,0,1-2.32,9.44,10.85,10.85,0,0,1-8.41,4h-.22a2.06,2.06,0,0,0,0,4.11h.25a14.93,14.93,0,0,0,11.59-5.52A15.2,15.2,0,0,0,686.56,623.29Z"/><circle class="cls-12" cx="609.67" cy="440.03" r="21.35"/><circle class="cls-32" cx="608.61" cy="438.77" r="21.35"/><circle class="cls-33" cx="602.9" cy="434.96" r="14.61"/><circle class="cls-12" cx="690.25" cy="440.03" r="21.35"/><circle class="cls-32" cx="689.19" cy="438.77" r="21.35"/><circle class="cls-33" cx="683.48" cy="434.96" r="14.61"/><path class="cls-13" d="M547,399.69c5.69,0,5.7-8.84,0-8.84s-5.69,8.84,0,8.84Z"/><path class="cls-31" d="M532.63,511.05c4.77,1,9.54,1.95,14.25,2.82a1.76,1.76,0,0,0,2.06-1.43c1-5.47,2.31-13.15,3.08-17.55a1.76,1.76,0,0,0-1.42-2c-7.21-1.34-14.33-2.81-21.24-4.37a1.75,1.75,0,0,0-2.13,2,183.31,183.31,0,0,0,4,19.3A1.79,1.79,0,0,0,532.63,511.05Z"/><path class="cls-31" d="M555.15,515.35c10.27,1.73,20.59,3.19,30.73,4.34a1.78,1.78,0,0,0,2-1.58q.92-8.88,1.85-17.74a1.74,1.74,0,0,0-1.55-1.93c-9.71-1.09-19.55-2.48-29.33-4.14a1.74,1.74,0,0,0-2,1.43q-1.54,8.81-3.08,17.56A1.79,1.79,0,0,0,555.15,515.35Z"/><path class="cls-31" d="M594.24,520.56c10.33,1,20.69,1.74,30.88,2.18A1.78,1.78,0,0,0,627,521l.63-17.82a1.76,1.76,0,0,0-1.69-1.82c-9.82-.42-19.71-1.12-29.47-2.08a1.76,1.76,0,0,0-1.92,1.57q-.94,8.87-1.86,17.73A1.77,1.77,0,0,0,594.24,520.56Z"/><path class="cls-31" d="M632.42,503.38l-.63,17.82a1.77,1.77,0,0,0,1.72,1.83c10.28.28,20.66.28,30.94,0a1.77,1.77,0,0,0,1.72-1.83q-.31-8.91-.62-17.82a1.75,1.75,0,0,0-1.8-1.7c-9.8.27-19.71.27-29.52,0A1.77,1.77,0,0,0,632.42,503.38Z"/><path class="cls-31" d="M670.39,503.21q.3,8.93.61,17.82a1.79,1.79,0,0,0,1.85,1.71c10.28-.44,20.64-1.16,30.88-2.16a1.76,1.76,0,0,0,1.58-2l-1.84-17.73a1.75,1.75,0,0,0-1.92-1.57c-9.67.95-19.56,1.64-29.47,2.06A1.76,1.76,0,0,0,670.39,503.21Z"/><path class="cls-31" d="M740.88,494c-10.37,1.78-20.8,3.26-31,4.42a1.76,1.76,0,0,0-1.55,1.93l1.85,17.73a1.77,1.77,0,0,0,2,1.58c10.15-1.14,20.47-2.6,30.73-4.33a1.77,1.77,0,0,0,1.45-2c-1-6.06-2.6-14.84-3.3-18.87Z"/><path class="cls-31" d="M768.28,509.34c.82-4.22,2.63-13.57,3.53-19.27a1.76,1.76,0,0,0-2.14-2c-6.6,1.54-14.46,3.31-22.31,4.79a1.76,1.76,0,0,0-1.41,2L749,512.47a1.76,1.76,0,0,0,2.07,1.42c5.36-1,10.67-2.06,15.82-3.16A1.78,1.78,0,0,0,768.28,509.34Z"/><rect class="cls-26" x="647.51" y="342.25" width="6.48" height="35.09"/><circle class="cls-18" cx="650.75" cy="332.61" r="15.28"/><ellipse class="cls-13" cx="650.18" cy="330.84" rx="13.78" ry="13.51"/><path class="cls-34" d="M659.17,328.58a10.78,10.78,0,0,1-21.54.62,12.89,12.89,0,0,1,5-9.72,10.77,10.77,0,0,1,16.55,9.1Z"/><path class="cls-13" d="M693,669.47v8.85a2.31,2.31,0,0,1-2.3,2.3,11,11,0,0,1-3.71-.28,2,2,0,0,1-1.35-2v-8.85a2.31,2.31,0,0,1,2.3-2.3c1.22,0,3.13-.19,4.22.53A1.92,1.92,0,0,1,693,669.47Z"/><path class="cls-12" d="M693.47,669.72v8.85a2.3,2.3,0,0,1-2.3,2.3c-1.22,0-3.13.2-4.22-.53a11,11,0,0,0,3.71.28,2.31,2.31,0,0,0,2.3-2.3v-8.85a1.92,1.92,0,0,0-.84-1.77A1.93,1.93,0,0,1,693.47,669.72Z"/><path class="cls-35" d="M688.07,678.39h0v-9h0a.58.58,0,0,0,.57-.58.57.57,0,0,0-.57-.57c-1,0-1.69,1-1.69,2.29v6.7c0,1.29.74,2.3,1.69,2.3a.58.58,0,0,0,0-1.15Z"/><path class="cls-13" d="M703.59,669.47v8.85a2.31,2.31,0,0,1-2.3,2.3,11,11,0,0,1-3.71-.28,1.93,1.93,0,0,1-1.34-2v-8.85a2.3,2.3,0,0,1,2.29-2.3c1.22,0,3.13-.19,4.22.53A1.92,1.92,0,0,1,703.59,669.47Z"/><path class="cls-12" d="M704.1,669.72v8.85a2.3,2.3,0,0,1-2.3,2.3c-1.22,0-3.12.2-4.22-.53a11,11,0,0,0,3.71.28,2.31,2.31,0,0,0,2.3-2.3v-8.85a1.92,1.92,0,0,0-.84-1.77A1.93,1.93,0,0,1,704.1,669.72Z"/><path class="cls-35" d="M698.7,678.39h0v-9h0a.58.58,0,0,0,.57-.58.57.57,0,0,0-.57-.57c-1,0-1.69,1-1.69,2.29v6.7c0,1.29.74,2.3,1.69,2.3a.58.58,0,0,0,0-1.15Z"/><path class="cls-13" d="M714.22,669.47v8.85a2.31,2.31,0,0,1-2.3,2.3,10.89,10.89,0,0,1-3.7-.28,1.93,1.93,0,0,1-1.35-2v-8.85a2.3,2.3,0,0,1,2.29-2.3c1.23,0,3.13-.19,4.22.53A1.92,1.92,0,0,1,714.22,669.47Z"/><path class="cls-12" d="M714.73,669.72v8.85a2.3,2.3,0,0,1-2.29,2.3c-1.23,0-3.13.2-4.22-.53a10.89,10.89,0,0,0,3.7.28,2.31,2.31,0,0,0,2.3-2.3v-8.85a1.92,1.92,0,0,0-.84-1.77A1.93,1.93,0,0,1,714.73,669.72Z"/><path class="cls-35" d="M709.33,678.39h0v-9h0a.57.57,0,0,0,.57-.58.56.56,0,0,0-.57-.57c-1,0-1.68,1-1.68,2.29v6.7c0,1.29.73,2.3,1.68,2.3a.58.58,0,0,0,0-1.15Z"/><path class="cls-13" d="M547.15,536.94a3.53,3.53,0,0,1-2.88-1.49c-3.44-4.83-5.65-10.22-7.78-15.43a3.53,3.53,0,1,1,6.54-2.68c2,4.84,4,9.84,7,14a3.54,3.54,0,0,1-2.88,5.59Z"/></g><path class="cls-36" d="M795.32,415.27a6.24,6.24,0,0,1-1.51,3,7,7,0,0,1-1.26,1.11,6.4,6.4,0,0,1-4.87,1L579.24,378.7a6.55,6.55,0,0,1-4.87-4.29,6.34,6.34,0,0,1-.22-3.36,6.53,6.53,0,0,1,7.64-5.1l208.43,41.68A6.51,6.51,0,0,1,795.32,415.27Z"/><path class="cls-37" d="M793.81,418.28a7,7,0,0,1-1.26,1.11,6.4,6.4,0,0,1-4.87,1L579.24,378.7a6.55,6.55,0,0,1-4.87-4.29,5.65,5.65,0,0,1,1.28-1.11,6.5,6.5,0,0,1,4.87-1L789,414A6.45,6.45,0,0,1,793.81,418.28Z"/><path class="cls-36" d="M779.15,405.41,591.54,367.9a95.78,95.78,0,0,1,87.19-72.32c1.21-.07,2.41-.12,3.64-.15,1.77,0,3.56,0,5.35.05l.78,0c1.63.07,3.26.19,4.91.35,1.17.1,2.34.24,3.5.38.9.13,1.79.25,2.68.4l1,.18c.85.14,1.71.3,2.57.47,2.11.42,4.17.91,6.21,1.47,1.15.3,2.29.63,3.42,1a94.52,94.52,0,0,1,9.12,3.36c.41.15.8.33,1.2.51l.37.15c1,.45,2,.9,2.94,1.37a92.4,92.4,0,0,1,8.51,4.72l.1.06A95.79,95.79,0,0,1,779.15,405.41Z"/><path class="cls-37" d="M779.15,405.41,591.54,367.9c.63-2.51,1.35-5,2.18-7.41l56.94,7.15,107.51,13.49a95.77,95.77,0,0,0-27.65-73.93,95.68,95.68,0,0,1,48.63,98.21Z"/><path class="cls-37" d="M696.85,296.63l-7.41,37a7.24,7.24,0,0,1-8.48,5.66,7.25,7.25,0,0,1-5.66-8.49l7.4-37a6.56,6.56,0,0,1,.94-2.35l.77,0a89.68,89.68,0,0,1,9.19.85,7,7,0,0,1,0,2.66l-.17.87c1.17.1,2.34.24,3.5.38C696.9,296.36,696.87,296.5,696.85,296.63Z"/><path class="cls-36" d="M693.58,295l-7.4,37a7.24,7.24,0,0,1-8.5,5.67h0a7.23,7.23,0,0,1-5.62-8.49l7.4-37a7.21,7.21,0,0,1,13.08-2.57,7.26,7.26,0,0,1,1.08,5.4Z"/><path class="cls-37" d="M726.47,305.11l-6.91,34.56a7.24,7.24,0,0,1-8.48,5.66,7,7,0,0,1-3.3-1.64h0a7.21,7.21,0,0,1-2.36-6.85l7.43-37.12a6.74,6.74,0,0,1,.91-2.25l.78,0a89,89,0,0,1,9.17.83,7.06,7.06,0,0,1,0,2.67l-.52,2.59.37.15C724.52,304.19,725.5,304.64,726.47,305.11Z"/><path class="cls-36" d="M723.68,301l-7.4,37a7.24,7.24,0,0,1-8.5,5.67h0a7.24,7.24,0,0,1-5.64-8.5l7.4-37a7.21,7.21,0,0,1,13.07-2.57,7.23,7.23,0,0,1,1.08,5.4Z"/><path class="cls-38" d="M622.9,330.63a2.77,2.77,0,0,1-1.37-.7,2.8,2.8,0,0,1-.11-3.95A70.46,70.46,0,0,1,652,307a2.85,2.85,0,0,1,1.36-.07,2.79,2.79,0,0,1,.27,5.4,65,65,0,0,0-28.16,17.47A2.74,2.74,0,0,1,622.9,330.63Z"/></g></g></g></svg>