<svg xmlns="http://www.w3.org/2000/svg" viewBox="0 0 392.7 392.7"><defs><style>.cls-1{fill:#fd973f;}.cls-2{fill:#333;}</style></defs><g id="Capa_2" data-name="Capa 2"><g id="Capa_2-2" data-name="Capa 2"><circle class="cls-1" cx="196.35" cy="196.35" r="196.35"/><path class="cls-2" d="M304.84,129.07a88.12,88.12,0,0,1-21.66,6.18c3.49-.59,8.6-6.89,10.65-9.44A39.64,39.64,0,0,0,301,112.7c.19-.37.32-.84,0-1.13a1.25,1.25,0,0,0-1.15.1,110.3,110.3,0,0,1-25.67,9.82,1.74,1.74,0,0,1-1.78-.46,19.6,19.6,0,0,0-2.24-2.3,45.51,45.51,0,0,0-12.44-7.62A43.35,43.35,0,0,0,238.61,108a45.57,45.57,0,0,0-18.1,5.11,46.88,46.88,0,0,0-14.6,11.92,44.78,44.78,0,0,0-8.71,17.47,47.3,47.3,0,0,0-.47,18.44c.14,1,.05,1.17-.88,1-35.27-5.25-64.5-17.87-88.23-44.91-1-1.18-1.59-1.18-2.44.09-10.38,15.56-5.34,40.57,7.63,52.86,1.73,1.64,3.51,3.28,5.42,4.77-.7.15-9.33-.79-17-4.77-1-.65-1.55-.28-1.64.89a26.7,26.7,0,0,0,.28,5.06c2,15.77,12.92,30.37,27.88,36.06a25.91,25.91,0,0,0,5.66,1.73c-3.41.75-6.92,1.28-16.7.52-1.22-.23-1.68.37-1.22,1.54,7.35,20,23.21,26,35.09,29.38,1.59.28,3.18.28,4.77.65-.09.15-.19.15-.28.29-3.94,6-17.6,10.47-24,12.7a85.78,85.78,0,0,1-36.39,4.65c-2-.28-2.37-.26-2.9,0s-.07.8.56,1.31c2.48,1.64,5,3.09,7.58,4.49a119.44,119.44,0,0,0,24.33,9.73c43.71,12.08,93,3.21,125.78-29.41,25.78-25.61,34.81-60.93,34.81-96.29,0-1.38,1.64-2.15,2.61-2.88a85.53,85.53,0,0,0,17.12-17.8,5.42,5.42,0,0,0,1.13-3.41v-.19C305.72,128.51,305.71,128.68,304.84,129.07Z"/></g></g></svg>