<svg xmlns="http://www.w3.org/2000/svg" viewBox="0 0 517.91 337.89"><defs><style>.cls-1{isolation:isolate;}.cls-2{fill:#ededed;}.cls-2,.cls-5{mix-blend-mode:multiply;}.cls-3{fill:#9d9d9c;}.cls-4{fill:#c6c6c6;}.cls-5{fill:#878787;opacity:0.52;}.cls-6{fill:#faa744;}.cls-7{fill:#ffd042;}.cls-8{fill:#3c3c3b;}</style></defs><g class="cls-1"><g id="Capa_2" data-name="Capa 2"><g id="Capa_1-2" data-name="Capa 1"><ellipse class="cls-2" cx="258.95" cy="317.06" rx="258.95" ry="20.83"/><polygon class="cls-3" points="106.35 9.02 54.46 317.06 28.86 317.06 80.75 9.02 106.35 9.02"/><polygon class="cls-4" points="111.3 9.02 111.16 9.82 106.82 35.58 105.48 43.58 100.84 71.11 98.36 85.8 93.94 112.08 92.59 120.08 89.76 136.92 89.22 140.07 89.22 140.09 88.37 145.13 84.49 168.2 84.49 168.21 83.77 172.42 59.41 317.06 33.81 317.06 73.09 83.85 73.09 83.84 73.79 79.73 73.79 79.73 78.53 51.62 78.53 51.61 79.88 43.58 81.22 35.58 85.57 9.82 85.7 9.02 111.3 9.02"/><polygon class="cls-3" points="398.62 0 392.37 36.5 390.95 44.77 390.64 46.6 388.17 61.05 378.81 115.64 377.39 123.91 374.41 141.33 372.95 149.82 360.86 220.47 359.4 228.96 346.73 302.92 321.14 302.92 333.81 228.96 335.26 220.47 347.36 149.82 348.82 141.33 351.8 123.91 353.22 115.64 365.36 44.77 366.77 36.5 373.03 0 398.62 0"/><polygon class="cls-4" points="403.57 0 403.44 0.79 397.32 36.5 395.9 44.77 393.12 61.05 390.64 75.5 383.76 115.64 382.35 123.91 379.36 141.33 377.9 149.82 365.81 220.47 364.36 228.96 351.68 302.92 326.09 302.92 338.76 228.96 340.21 220.47 352.31 149.82 353.77 141.33 356.75 123.91 358.17 115.64 370.31 44.77 371.72 36.5 377.85 0.79 377.98 0 403.57 0"/><polygon class="cls-3" points="455.19 317.06 429.6 317.06 416.93 239.64 415.47 230.76 403.38 156.82 401.92 147.93 398.93 129.69 397.52 121.03 390.64 79.03 388.17 63.9 385.38 46.86 383.96 38.2 377.85 0.82 377.71 0 403.3 0 403.44 0.82 409.56 38.2 410.97 46.86 423.11 121.03 424.53 129.69 427.51 147.93 428.97 156.82 441.07 230.76 442.52 239.64 455.19 317.06"/><polygon class="cls-4" points="460.14 317.06 434.55 317.06 421.88 239.64 420.42 230.76 408.33 156.82 406.87 147.93 403.88 129.69 402.47 121.03 393.12 63.9 390.64 48.78 390.33 46.86 388.91 38.2 382.66 0 408.25 0 414.51 38.2 415.93 46.86 428.06 121.03 429.48 129.69 432.46 147.93 433.92 156.82 446.02 230.76 447.47 239.64 460.14 317.06"/><polygon class="cls-3" points="162.91 327.68 137.32 327.68 121.24 228.96 119.86 220.47 108.35 149.82 106.97 141.33 104.13 123.91 102.79 115.64 98.36 88.45 95.89 73.25 91.25 44.77 89.9 36.5 85.57 9.85 85.43 9.02 111.03 9.02 111.16 9.85 115.5 36.5 116.84 44.77 128.38 115.64 129.73 123.91 132.56 141.33 133.95 149.82 145.46 220.47 146.83 228.96 162.91 327.68"/><polygon class="cls-4" points="167.86 327.68 142.27 327.68 126.19 228.96 124.81 220.47 113.3 149.82 111.92 141.33 109.08 123.91 107.74 115.64 100.84 73.25 98.36 58.05 96.2 44.77 94.85 36.5 90.38 9.02 115.97 9.02 120.45 36.5 121.8 44.77 133.34 115.64 134.68 123.91 137.51 141.33 138.9 149.82 150.41 220.47 151.78 228.96 167.86 327.68"/><polygon class="cls-5" points="446.02 220.47 447.47 228.96 416.93 228.96 415.47 220.47 365.81 220.47 364.36 228.96 333.81 228.96 335.26 220.47 150.41 220.47 151.78 228.96 121.24 228.96 119.86 220.47 92.49 220.47 84.49 173.71 449.84 149.82 461.94 220.47 446.02 220.47"/><polygon class="cls-5" points="428.06 115.64 429.48 123.91 398.93 123.91 397.52 115.64 383.76 115.64 382.35 123.91 351.8 123.91 353.22 115.64 133.34 115.64 134.68 123.91 104.13 123.91 102.79 115.64 93.94 115.64 92.59 123.91 82.46 123.91 68.91 44.77 436.87 44.77 449 115.64 428.06 115.64"/><polygon class="cls-6" points="449.33 115.41 80.58 115.41 74.89 82.14 74.89 82.13 72.36 67.41 68.52 44.95 67.11 36.73 435.86 36.73 449.33 115.41"/><polygon class="cls-7" points="146.62 36.73 122.73 115.41 158.66 115.41 182.54 36.73 146.62 36.73"/><polygon class="cls-7" points="223.45 36.73 199.56 115.41 235.49 115.41 259.38 36.73 223.45 36.73"/><polygon class="cls-7" points="76.77 36.73 77.07 38.49 78.18 44.95 79.6 53.21 79.6 53.22 87.21 97.67 105.72 36.73 76.77 36.73"/><polygon class="cls-7" points="300.28 36.73 276.39 115.41 312.32 115.41 336.2 36.73 300.28 36.73"/><polygon class="cls-7" points="448.56 54.46 430.05 115.41 459 115.41 448.56 54.46"/><polygon class="cls-7" points="377.11 36.73 353.22 115.41 389.15 115.41 413.04 36.73 377.11 36.73"/><polygon class="cls-8" points="445.52 36.73 413.04 36.73 389.15 115.41 430.05 115.41 448.56 54.46 445.52 36.73"/><polygon class="cls-8" points="336.2 36.73 312.32 115.41 353.22 115.41 377.11 36.73 336.2 36.73"/><polygon class="cls-8" points="259.38 36.73 235.49 115.41 276.39 115.41 300.28 36.73 259.38 36.73"/><polygon class="cls-8" points="182.54 36.73 158.66 115.41 199.56 115.41 223.45 36.73 182.54 36.73"/><polygon class="cls-8" points="105.72 36.73 87.21 97.67 90.12 114.65 90.25 115.41 122.73 115.41 146.62 36.73 105.72 36.73"/><polygon class="cls-6" points="452.61 220.24 83.86 220.24 78.17 186.97 78.17 186.97 75.64 172.25 71.79 149.78 70.39 141.56 439.14 141.56 452.61 220.24"/><polygon class="cls-7" points="149.9 141.56 126 220.24 161.94 220.24 185.82 141.56 149.9 141.56"/><polygon class="cls-7" points="226.73 141.56 202.84 220.24 238.76 220.24 262.65 141.56 226.73 141.56"/><polygon class="cls-7" points="80.05 141.56 80.35 143.32 81.46 149.78 82.88 158.05 82.88 158.05 90.49 202.51 108.99 141.56 80.05 141.56"/><polygon class="cls-7" points="303.56 141.56 279.67 220.24 315.6 220.24 339.48 141.56 303.56 141.56"/><polygon class="cls-7" points="451.84 159.29 433.33 220.24 462.28 220.24 451.84 159.29"/><polygon class="cls-7" points="380.39 141.56 356.5 220.24 392.43 220.24 416.31 141.56 380.39 141.56"/><polygon class="cls-8" points="448.8 141.56 416.31 141.56 392.43 220.24 433.33 220.24 451.84 159.29 448.8 141.56"/><polygon class="cls-8" points="339.48 141.56 315.6 220.24 356.5 220.24 380.39 141.56 339.48 141.56"/><polygon class="cls-8" points="262.65 141.56 238.76 220.24 279.67 220.24 303.56 141.56 262.65 141.56"/><polygon class="cls-8" points="185.82 141.56 161.94 220.24 202.84 220.24 226.73 141.56 185.82 141.56"/><polygon class="cls-8" points="108.99 141.56 90.49 202.51 93.4 219.49 93.53 220.24 126 220.24 149.9 141.56 108.99 141.56"/><circle class="cls-4" cx="116.06" cy="71.63" r="4.43"/><circle class="cls-4" cx="413.04" cy="71.63" r="4.43"/><circle class="cls-4" cx="133.56" cy="178.99" r="4.43"/><circle class="cls-4" cx="428.89" cy="178.99" r="4.43"/></g></g></g></svg>